<?xml version="1.0" encoding="iso-8859-1"?>
<!-- Generator: Adobe Illustrator 19.0.0, SVG Export Plug-In . SVG Version: 6.00 Build 0)  -->
<svg version="1.1" id="Layer_1" xmlns="http://www.w3.org/2000/svg" xmlns:xlink="http://www.w3.org/1999/xlink" x="0px" y="0px"
	 viewBox="0 0 512.001 512.001" style="enable-background:new 0 0 512.001 512.001;" xml:space="preserve">
<rect x="82.665" y="52.758" style="fill:#FFAC12;" width="346.67" height="442.55"/>
<rect x="255.995" y="52.758" style="fill:#D89210;" width="173.33" height="442.55"/>
<path style="fill:#F9D026;" d="M255.995,341.634c-25.11,0-45.539-20.429-45.539-45.539c0-29.852,32.621-66.884,36.341-71.009
	l9.198-10.2l9.198,10.2c3.72,4.124,36.341,41.156,36.341,71.009C301.534,321.205,281.105,341.634,255.995,341.634z"/>
<rect x="367.295" style="fill:#3A3839;" width="33.391" height="52.758"/>
<g>
	<rect x="69.285" y="125.56" style="fill:#444242;" width="373.43" height="33.391"/>
	<rect x="69.285" y="36.06" style="fill:#444242;" width="373.43" height="33.391"/>
	<rect x="69.285" y="478.61" style="fill:#444242;" width="373.43" height="33.391"/>
	<rect x="69.285" y="389.12" style="fill:#444242;" width="373.43" height="33.391"/>
</g>
<path style="fill:#E7C224;" d="M301.534,296.095c0-29.852-32.621-66.884-36.341-71.009l-9.197-10.199v126.747
	C281.106,341.634,301.534,321.205,301.534,296.095z"/>
<g>
	<rect x="255.995" y="125.56" style="fill:#3A3839;" width="186.71" height="33.391"/>
	<rect x="255.995" y="389.12" style="fill:#3A3839;" width="186.71" height="33.391"/>
	<rect x="255.995" y="478.61" style="fill:#3A3839;" width="186.71" height="33.391"/>
	<rect x="255.995" y="36.06" style="fill:#3A3839;" width="186.71" height="33.391"/>
</g>
<g>
</g>
<g>
</g>
<g>
</g>
<g>
</g>
<g>
</g>
<g>
</g>
<g>
</g>
<g>
</g>
<g>
</g>
<g>
</g>
<g>
</g>
<g>
</g>
<g>
</g>
<g>
</g>
<g>
</g>
</svg>
